/* XPM */
static char *result[] = {
/* columns rows colors chars-per-pixel */
"40 40 203 2 ",
"   c #05030F",
".  c #09070F",
"X  c #090614",
"o  c #110D15",
"O  c #0F1016",
"+  c #191318",
"@  c #23191B",
"#  c #2C1E1A",
"$  c #33251B",
"%  c #3B2C1F",
"&  c #342A1D",
"*  c #2B221B",
"=  c #060725",
"-  c #100A20",
";  c #0C142D",
":  c #171828",
">  c #090C3A",
",  c #0B0A32",
"<  c #08123D",
"1  c #0A193D",
"2  c #071036",
"3  c #171C35",
"4  c #271E24",
"5  c #1F2037",
"6  c #2A2228",
"7  c #352D24",
"8  c #3B2D23",
"9  c #32262F",
"0  c #342C2C",
"q  c #3B2E2B",
"w  c #362622",
"e  c #373122",
"r  c #3C3324",
"t  c #3D312A",
"y  c #3E392B",
"u  c #272532",
"i  c #2C2539",
"p  c #2B293A",
"a  c #20283C",
"s  c #342A34",
"d  c #342A35",
"f  c #3D3331",
"g  c #3D343B",
"h  c #37323D",
"j  c #443425",
"k  c #4A3727",
"l  c #43352D",
"z  c #453A2A",
"x  c #4B3C2D",
"c  c #443C26",
"v  c #523D2D",
"b  c #453A34",
"n  c #4C3A33",
"m  c #443A3A",
"M  c #493E3C",
"N  c #423536",
"B  c #4E412B",
"V  c #52442E",
"C  c #5B482D",
"Z  c #4E443C",
"A  c #4E4435",
"S  c #534232",
"D  c #574A33",
"F  c #5D4B35",
"G  c #5B4C3B",
"H  c #554639",
"J  c #5E543F",
"K  c #634D3C",
"L  c #6A563A",
"P  c #091644",
"I  c #081C4A",
"U  c #081946",
"Y  c #1F1C40",
"T  c #092149",
"R  c #172445",
"E  c #092552",
"W  c #0C2C55",
"Q  c #0F2A5B",
"!  c #132C54",
"~  c #142956",
"^  c #0B335D",
"/  c #133759",
"(  c #292949",
")  c #393745",
"_  c #2C2F5B",
"`  c #283A58",
"'  c #2F344D",
"]  c #0F3E67",
"[  c #113A65",
"{  c #113461",
"}  c #283B64",
"|  c #363E70",
" . c #383C68",
".. c #413A46",
"X. c #1F415D",
"o. c #26415B",
"O. c #1E4363",
"+. c #224C6C",
"@. c #37446E",
"#. c #24526E",
"$. c #394877",
"%. c #295871",
"&. c #4C4344",
"*. c #4C464E",
"=. c #524544",
"-. c #564C44",
";. c #5A4C43",
":. c #534649",
">. c #544C4B",
",. c #594C48",
"<. c #5D5141",
"1. c #474451",
"2. c #4B4956",
"3. c #554E57",
"4. c #4C525C",
"5. c #5C5454",
"6. c #54545B",
"7. c #59595F",
"8. c #614D45",
"9. c #604C48",
"0. c #645344",
"q. c #6A5443",
"w. c #63554B",
"e. c #6B564C",
"r. c #6D5C4B",
"t. c #665E4D",
"y. c #735D4C",
"u. c #725D41",
"i. c #635553",
"p. c #625D55",
"a. c #6E5E57",
"s. c #725E51",
"d. c #67604F",
"f. c #6A6252",
"g. c #6B6558",
"h. c #7A665A",
"j. c #434A67",
"k. c #4B5267",
"l. c #565A66",
"z. c #5B5C65",
"x. c #5A5C69",
"c. c #404C78",
"v. c #4F5C70",
"b. c #595C79",
"n. c #5B626C",
"m. c #5A6678",
"M. c #666368",
"N. c #736C63",
"B. c #736462",
"V. c #6A6A76",
"C. c #6B717C",
"Z. c #78767B",
"A. c #7A766B",
"S. c #8B6D50",
"D. c #89705E",
"F. c #907058",
"G. c #857365",
"H. c #897C75",
"J. c #907E70",
"K. c #8A8277",
"L. c #3D5584",
"P. c #425180",
"I. c #43628C",
"U. c #486B89",
"Y. c #5D6284",
"T. c #506085",
"R. c #456697",
"E. c #4F7B9A",
"W. c #646B89",
"Q. c #63758D",
"!. c #68768A",
"~. c #7B768B",
"^. c #797C88",
"/. c #647B92",
"(. c #687C98",
"). c #717292",
"_. c #4C7EA3",
"`. c #567DA1",
"'. c #4E74B1",
"]. c #6479A8",
"[. c #7C8089",
"{. c #6D8198",
"}. c #778094",
"|. c #4E85B2",
" X c #4984AC",
".X c #6692A9",
"XX c #5AA4BA",
"oX c #539DC9",
"OX c #59A9CD",
"+X c #76AAC0",
"@X c #65B9CD",
"#X c #6DACD3",
"$X c #69B9D6",
"%X c #69A5CB",
"&X c #64CADE",
"*X c #68CBDE",
"=X c #60C4DA",
"-X c #64CDE0",
";X c #6CD1E4",
":X c #86848D",
">X c #AB9F9D",
",X c #BDA08C",
"<X c None",
/* pixels */
"<X<X<X<X<X<X<X<X<X<X<X<X<X<X<X<X<X<X<X<X<X<X<X<X<X<X<X<X<X<X<X<X<X<X<X<X<X<X<X<X",
"<X<X<X<X<X<X<X<X<X<X<X<X<X<X<X<X<X<X<X<X<X<X<X<X<X<X<X<X<X<X<X<X<X<X<X<X<X<X<X<X",
"<X<X<X<X<X<X<X<X<X<X<X<X<X<X<X<X<X<X<X<X<X<X<X<X<X<X<X<X<X<X<X<X<X<X<X<X<X<X<X<X",
"<X<X<X<X<X<X<X<X<X<X<X<X<X<X<X<X<X<X<X<X<X<X<X<X<X<X<X<X<X<X<X<X<X<X<X<X<X<X<X<X",
"<X<X<X<X<X<X<X<X<X<X<X<X<X<X<X<X<X<X<X<X<X<X<X<X<X<X<X<X<X<X<X<X<X<X<X<X<X<X<X<X",
"<X<X<X<X<X<X<X<X<X<X<X<X<X<X<X<X<X<X<X<X<X<X<X<X<X<X<X<X<X<X<X<X<X<X<X<X<X<X<X<X",
"<X<X<X<X<X<X<X<X<X<X<X<X<X<X<X<X<X<X<X<X<X<X<X<X<X<X<X<X<X<X<X<X<X<X<X<X<X<X<X<X",
"<X<X<X<X<X<X<X<X<X<X<XC.:X^.C.n.<X<X<X<X<X<X<X<X<X<X<X<X<X<X<X<X<X<X<X<X<X<X<X<X",
"<X<X<X<X<X<X<X<X<X}.!.z...k.].].(.{./.(.(.z.1...7.<X<X!.n.6.,.9.B.<X<X<X<X<X<X<X",
"<X<X<X<X<X<X<X<X<XW.:Xk.$X;X;X+X/.Q./.Q.) U.%X#X#X#XY.b.V.G e.s.h.<X<X<X<X<X<X<X",
"<X<X<X<X<X<X<X<X!.~.z.$X&X-X@X1.2.m.^.g XX*X-X;X*X.XY.).a.9.e.e.w.J.<X<X<X<X<X<X",
"<X<X<X<X<X<X<X<XW.J.T.`.E._.C.l.4.1.i.U.OX=X-X-X@XY.Y.^.s.X n ..o J.<X<X<X<X<X<X",
"<X<X<X<X<X<X<X<X:.M P.R.P.R.4.4.l.z.9 I. XOXoX|.!.b.~.G.( X 9 ~   G.<X<X<X<X<X<X",
"<X<X<X<X<X<X<X<Xn d $.L.@.j.6.7.6.M.q $.L.R.R.'.3.3.H.s.~ 5 9.~ : h.<X<X<X<X<X<X",
"<X<X<X<X<X<X<X<Xn 9 | j.0.<.D j K F.F...j.L.P.$.5.:.s.` ~ p e.{ : h.<X<X<X<X<X<X",
"<X<X<X<X<X<X<X<Xn 9 _ =.x D z t F L L 5.( | $. .,...y.{ Q h y.[ u <X<X<X<X<X<X<X",
"<X<X<X<X<X<X<X<Xl &.&.G A Z z.M.D.l F G 2.( } _ ..n y.[ W m y.! i.<X<X<X<X<X<X<X",
"<X<X<X<X<X<X<X<XA b z <.c M.V.,XK.,.t V V g 5 d q j r.O.1 ) y.) y.<X<X<X<X<X<X<X",
"<X<X<X<X<X<X<X<Xj $ $ j j & & K !.n.C f.V A -.Z j e y.o.i i.y.4 q.<X<X<X<X<X<X<X",
"<X<X<X<X<X<X<X<X<X$ O , r % w e d.G % B @ b x v D V q.p >.0 4.p <X<X<X<X<X<X<X<X",
"<X<X<X<X<X<X<X<X<X$ 4 P y r 7 & y 7 & c @ % j k x b K p n u 8.N <X<X<X<X<X<X<X<X",
"<X<X<X<X<X<X<X<X<Xj j P P u 7 e   X 8 e = > > 8 x z N . 6 0 ; 6 <X<X<X<X<X<X<X<X",
"<X<X<X<X<X<X<X<X<XH 8 R ^ P 7 # @ * # o > P P w # k R = + 5 T u <X<X<X<X<X<X<X<X",
"<X<X<X<X<X<X<X<X<X<XG } O.T 3 y & + + 2 I I I w # x W I O 5 5 -.<X<X<X<X<X<X<X<X",
"<X<X<X<X<X<X<X<X<Xw.;.' #./ N t.d.6 p U E W ! $ # v { U m 4 q 0.<X<X<X<X<X<X<X<X",
"<X<X<X<X<X<X<X<X<X,.0.w.5.>.M d.d.0 b 1 W X.O.8 # C ^ 1 &.Z Z x.n.<X<X<X<X<X<X<X",
"<X<X<X<X<X<X<X<Xm.m.v.b D <.N.N.K.7.0 3 / #.o.G H 8.E 3 2.n <Xo <X<X<X<X<X<X<X<X",
"<X<X<X<X<X<X<X<X<XO O <X<X<XN.K.A.d.y =.5.*.) 0.r.q.) q.S <X<X<X<X<X<X<X<X<X<X<X",
"<X<X<X<X<X<X<X<X<X<X<X<X<X<X<Xf.g.g.<X<.q.w.w.0.r.q.q.<X<X<X<X<X<X<X<X<X<X<X<X<X",
"<X<X<X<X<X<X<X<X<X<X<X<X<X<X<X<X<X<X<X<X<Xx G J r.e.C.<X<X<X<X<X<X<X<X<X<X<X<X<X",
"<X<X<X<X<X<X<X<X<X<X<X<X<X<X<X<X<X<X<X<X<X<Xx.v.V.[.^.<X<X<X<X<X<X<X<X<X<X<X<X<X",
"<X<X<X<X<X<X<X<X<X<X<X<X<X<X<X<X<X<X<X<X<X<X<X6 n.>X&.<X<X<X<X<X<X<X<X<X<X<X<X<X",
"<X<X<X<X<X<X<X<X<X<X<X<X<X<X<X<X<X<X<X<X<X<X<X<X<X8 <X<X<X<X<X<X<X<X<X<X<X<X<X<X",
"<X<X<X<X<X<X<X<X<X<X<X<X<X<X<X<X<X<X<X<X<X<X<X<X<X<X<X<X<X<X<X<X<X<X<X<X<X<X<X<X",
"<X<X<X<X<X<X<X<X<X<X<X<X<X<X<X<X<X<X<X<X<X<X<X<X<X<X<X<X<X<X<X<X<X<X<X<X<X<X<X<X",
"<X<X<X<X<X<X<X<X<X<X<X<X<X<X<X<X<X<X<X<X<X<X<X<X<X<X<X<X<X<X<X<X<X<X<X<X<X<X<X<X",
"<X<X<X<X<X<X<X<X<X<X<X<X<X<X<X<X<X<X<X<X<X<X<X<X<X<X<X<X<X<X<X<X<X<X<X<X<X<X<X<X",
"<X<X<X<X<X<X<X<X<X<X<X<X<X<X<X<X<X<X<X<X<X<X<X<X<X<X<X<X<X<X<X<X<X<X<X<X<X<X<X<X",
"<X<X<X<X<X<X<X<X<X<X<X<X<X<X<X<X<X<X<X<X<X<X<X<X<X<X<X<X<X<X<X<X<X<X<X<X<X<X<X<X",
"<X<X<X<X<X<X<X<X<X<X<X<X<X<X<X<X<X<X<X<X<X<X<X<X<X<X<X<X<X<X<X<X<X<X<X<X<X<X<X<X"
};