/* XPM */
static char *result[] = {
/* columns rows colors chars-per-pixel */
"37 40 196 2 ",
"   c black",
".  c #090D1A",
"X  c #050D19",
"o  c #0A141B",
"O  c #12161D",
"+  c #041223",
"@  c #061929",
"#  c #161C25",
"$  c #1A1D23",
"%  c #101F35",
"&  c #1D232C",
"*  c #172129",
"=  c #0E2337",
"-  c #0D243C",
";  c #12223A",
":  c #192E3C",
">  c #252932",
",  c #252A37",
"<  c #2F3139",
"1  c #1F4631",
"2  c #0D2846",
"3  c #132946",
"4  c #142B48",
"5  c #1B364D",
"6  c #112E51",
"7  c #0E3054",
"8  c #143255",
"9  c #15345B",
"0  c #1A365A",
"q  c #16385F",
"w  c #1E3A5D",
"e  c #1B3556",
"r  c #26394A",
"t  c #363A43",
"y  c #233B55",
"u  c #1B3C65",
"i  c #1B3E6A",
"p  c #233E64",
"a  c #203F6A",
"s  c #3A414F",
"d  c #25445A",
"f  c #354B5F",
"g  c #1E416C",
"h  c #1F4372",
"j  c #2B4363",
"k  c #294961",
"l  c #22426D",
"z  c #2B476E",
"x  c #2B496E",
"c  c #254463",
"v  c #354B66",
"b  c #345268",
"n  c #224675",
"m  c #284670",
"M  c #264976",
"N  c #2A4A73",
"B  c #244A7B",
"V  c #2A4D7B",
"C  c #304D75",
"Z  c #2E527E",
"A  c #31537B",
"S  c #395E7B",
"D  c #355872",
"F  c #38617F",
"G  c #41464E",
"H  c #474654",
"J  c #4A505C",
"K  c #565A65",
"L  c #585F71",
"P  c #5A636E",
"I  c #65686F",
"U  c #616F7B",
"Y  c #1F5188",
"T  c #264F84",
"R  c #284E81",
"E  c #2C5285",
"W  c #2B548A",
"Q  c #295489",
"!  c #335685",
"~  c #3A5A85",
"^  c #32578A",
"/  c #345A8B",
"(  c #3A5D8C",
")  c #365885",
"_  c #2F5A94",
"`  c #2C5790",
"'  c #345C93",
"]  c #395F95",
"[  c #3C6289",
"{  c #3C6194",
"}  c #35619C",
"|  c #3E659A",
" . c #396593",
".. c #3764A1",
"X. c #3E69A5",
"o. c #3E67A3",
"O. c #3D7DBB",
"+. c #466887",
"@. c #53778E",
"#. c #446A9D",
"$. c #486C9B",
"%. c #436795",
"&. c #4B7494",
"*. c #5C7A93",
"=. c #547E9D",
"-. c #597D98",
";. c #676F83",
":. c #607183",
">. c #6C7E9B",
",. c #75798A",
"<. c #446EA5",
"1. c #406CA9",
"2. c #4573A3",
"3. c #4C72A4",
"4. c #4671AB",
"5. c #4C75AC",
"6. c #4D7BAE",
"7. c #4E7DA3",
"8. c #5176A6",
"9. c #5379AD",
"0. c #597DAA",
"q. c #4976B0",
"w. c #4D7BB4",
"e. c #427AB8",
"r. c #537DB3",
"t. c #547FB8",
"y. c #6A9880",
"u. c #7F889D",
"i. c #5D85A4",
"p. c #5A86A6",
"a. c #4D82B6",
"s. c #5A81B4",
"d. c #5481BA",
"f. c #5A85BA",
"g. c #628CAB",
"h. c #6282A6",
"j. c #7D88A0",
"k. c #6991AF",
"l. c #6694B4",
"z. c #6A94B6",
"x. c #6E9AB7",
"c. c #6E9CBD",
"v. c #6A93BC",
"b. c #759CBB",
"n. c #72A0BF",
"m. c #5A87C2",
"M. c #5389C1",
"N. c #5E94C3",
"B. c #5E91CA",
"V. c #608CC5",
"C. c #6D9CC1",
"Z. c #6495CC",
"A. c #6E96C9",
"S. c #6EA2C9",
"D. c #72A1C3",
"F. c #79A7C5",
"G. c #76A5CA",
"H. c #7BAACA",
"J. c #7BA8C6",
"K. c #7AACD4",
"L. c #7CACD8",
"P. c #7DB1D9",
"I. c #8098AB",
"U. c #9FADB1",
"Y. c #9EB5BC",
"T. c #BAC1B9",
"R. c #86A9C8",
"E. c #88B2CD",
"W. c #90B6CF",
"Q. c #82AFD2",
"!. c #84B4D5",
"~. c #8AB8D8",
"^. c #A7B8C4",
"/. c #8ABCE3",
"(. c #9DC5DF",
"). c #95C3DF",
"_. c #A9CADE",
"`. c #8FC2E5",
"'. c #94C4E3",
"]. c #9AC5E2",
"[. c #9CCAE5",
"{. c #9CCDEC",
"}. c #95C7E9",
"|. c #A0CFEF",
" X c #A7D2ED",
".X c #B1DEE7",
"XX c #A2D3F1",
"oX c #ABD9F3",
"OX c #BBE5F5",
"+X c #C1CED7",
"@X c #C7D9E9",
"#X c #D4DFE7",
"$X c #C0DEF3",
"%X c #E1EAF0",
"&X c #FAFBF9",
"*X c None",
/* pixels */
"*X*X*X*X*X*X*X*X*X*X*X*X*X*X*X*X*X*X*X*X*X*X*X*X*X*X*X*X*X*X*X*X*X*X*X*X*X",
"*X*X*X*X*X*X*X*X*X*X*X*X*X*X*X*X*X*X*X*X*X*X*X*X*X*X*X*X*X*X2 *X*X*X*X*X*X",
"*X*X*X*X*X*X*X*X*X*X*X*X*X*X*X*X*X*X*X*X*X*X*X*X*X*X*X*X*X6 *X*X0 *X*X*X*X",
"*X*X*X*X*X*X*X*X*X*X*X*X*X*X*X*X*X*X*X*X*X*X*X*X*X*X*X*Xe 9 *Xu q *X*X*X*X",
"*X*X*X*X*X*X*X*X*X*X*X*X*X*X*X*X*X*X*X*X*X*X*X*X*X*X*Xu u u u u *X*X*X*X*X",
"*X*X*X*X*X*X*X*X*X*X*X*X*X*X*X*X*X*X*X*X*X*X*X*X*X*X*Xi B u h *X*X*X*X2 8 ",
"*X*X*X*X*X*X*X*X*X*X*X*X*X*X*X*X*X*X*X*X*X*X*X*X*X*Xh R h n *X*Xi 8 6 8 *X",
"*X*X*X*X*X*X*X*X*X*X*X*X*X*X*X*X*X*X*X*X*X*X*X*X*X*XB E B *XQ n h i *X*X*X",
"*X*X*X*X*X*X*X*X*X*X*X*X*X*X*X*X*X*X*X*X*X*X*X*X*X*X^ M *XQ Q T *X*X*X*X*X",
"*X*X*X*X*X*X*X*X*X*X*X*X*X*X*X*X*X*X*X*X*X*X*X*X*Xh c g V Q *XE n a q *X*X",
"*X*X*XC ) ! ! !  .*X*X*X*X*X*X*X*X*X*X*X*X*X*X*X*Xl V / V a n h h i 9 8 *X",
"*X*X*X*X*X*XZ ) ' { *X*X*X*X*X*X*X*X*X*X*X*X*X*X*Xz ) ^ ( q.w.q.o.B *X*X*X",
"*X*X*X*X*X*X*X*Xo.#.{ 5.*X*X*X*XO.e. .P.*X*X*X*X*X/ #.] ) / ' ] / E l *X*X",
"*Xi u l N *X*X*X*X*X<.<.9.*X*Xw.a.S.OXE.j.U.y.*X*XZ.4.5.) ) e.1.h 9 0 9 *X",
"*X*Xi g n B E ' | 5.*X| / A.*X*X7./.oXL ,.u.# .XXXOXA.t.( ] _ _ ` B 9 *X*X",
"i a l n M E ' | <.5.5.3.B.Z.r.w.C.>.v.+.H K ;.*./.K.#Xt.) ' ..] i u 9 *X*X",
"*X*Xi *XB E W ^ ' #.%.8.m.f.w.a.v &X1 k.t , & y XXL.@Xw.! ! R R Q 2 7 *X*X",
"*X*X*X*X*Xn T ^ ( ] ] t.f.m.M.B.r T.O W.< O . # |.L.b.t.] E ' a g *X*X*X*X",
"*X*X*Xp n B ! { $.3.r.8.s.f.f.6.*XY. X|.W.s H K }.{.].4./ ` Y ` 9 q *X*X*X",
"*X*X*X*Xa m ! ] / t.r.8.s.s.d.! %XE.l.F.'.[.i.i./.~.'.}.<.a Q Q 7 9 *X*X*X",
"*X*X*X*X4 a V 1.] ! m.$.0.s.w.*X#X@.:.g.K.{.{.{.`.`.G.!.(.0.l q ^.*X*X*X*X",
"*X*X*X*X*Xn n V 1.4.( 0.$.r.[ M.s.+Xb g.XXXX}.[.).~.W.I.F.G.9 8 I.*X*X*X*X",
"*X*X*X*X*Xi n a a ] t.] $.( #.%.2.$.z. XoXoX].(._.E.Q.x.p.p.*X>.*X*X*X*X*X",
"*X*X*X*X*X*Xi n R ] ^ r.V 2.z V N A L.Q.]. X].E.F.F.g.J.!.H.*X*X*X*X*X*X*X",
"*X*X*X*X*X*X*Xh h B | #.' 4.B Z m 3 7.'.).).n.x.l.n.J.n.H.K.i.*X*X*X*X*X*X",
"*X*X*X*X*X*X*X*XB M { V _ X._ ' B 0 4 G.`.).n.x.c.F.!.G.~.D.&.*X*X*X*X*X*X",
"*X*X*X*X*X*X*X*X*XN V W Q X.` ..Q Z M [ l.P I i.l.D.!.G.P.x.[ *X*X*X*X*X*X",
"*X*X*X*X*X*X*X*X*X*X*XV N ' E ' E T Z l.U J & i.l.D.H.G.n.i.[ *X*X*X*X*X*X",
"*X*X*X*X*X*X*X*X*X*X*XM x M N h C g c N.s < s d p.g.c.g.i.L *X*X*X*X*X*X*X",
"*X*X*X*X*X*X*X*X*X*X*X*X*X*XN g N 8 - a.O * = d b p.p.&.[ F *X*X*X*X*X*X*X",
"*X*X*X*X*X*X*X*X*X*X*X*X*X*X*Xu *Xw *X2.2 * & U k F [ D D *X*X*X*X*X*X*X*X",
"*X*X*X*X*X*X*X*X*X*Xj w w *X*X*X*X*X*XN.- o * 5 d d d b *X*X*X*X*X*X*X*X*X",
"*X*X*X*X*X*X*X*X2 *X*Xv v C ! m p z ; % e @ *X= 5 d f *X*X*X*X*X*X*X*X*X*X",
"*X*X*X*X*X*X*X*X*X3 y c M R M M m y ; X *XO . + = *X*X*X*X*X*X*X*X*X*X*X*X",
"*X*X*X*X*X*X*X*X*X*Xp C ~ ~ C y 0 ; + *X*X*X. + *X*X*X*X*X*X*X*X*X*X*X*X*X",
"*X*X*X*X*X*X*X*X*X*X*X*Xp v p 0 *X*X*X*X*X*XO O *X*X*X*X*X*X*X*X*X*X*X*X*X",
"*X*X*X*X*X*X*X*X*X*X*X*X*X*X*X*X*X*X*X*X*X*X$ *X*X*X*X*X*X*X*X*X*X*X*X*X*X",
"*X*X*X*X*X*X*X*X*X*X*X*X*X*X*X*X*X*X*X*X*XG # *X*X*X*X*X*X*X*X*X*X*X*X*X*X",
"*X*X*X*X*X*X*X*X*X*X*X*X*X*X*X*X*X*X*X*X*XK & < *X*X*X*X*X*X*X*X*X*X*X*X*X",
"        *X*X*X*X*X*X        *X*X*X*X*X*X*Xt $ $ *X*X*X*X*X*X*X*X*X*X*X*X*X"
};