/* XPM */
static char *result[] = {
/* columns rows colors chars-per-pixel */
"40 40 190 2 ",
"   c #151314",
".  c #1A1616",
"X  c #171619",
"o  c #191718",
"O  c #17181B",
"+  c #1C1A1C",
"@  c #211C1D",
"#  c #1E1E21",
"$  c #211E21",
"%  c #1F2125",
"&  c #232224",
"*  c #2C2526",
"=  c #2D2827",
"-  c #242529",
";  c #292629",
":  c #26282D",
">  c #2A2A2C",
",  c #322C2B",
"<  c #30302E",
"1  c #38302E",
"2  c #2E2D32",
"3  c #302E31",
"4  c #2E3035",
"5  c #343334",
"6  c #393433",
"7  c #3A3937",
"8  c #3D3C3C",
"9  c #38373A",
"0  c #433D3C",
"q  c #4A3F3E",
"w  c #403634",
"e  c #46413E",
"r  c #4D413F",
"t  c #373D45",
"y  c #3E4346",
"u  c #454443",
"i  c #4C4442",
"p  c #4D4947",
"a  c #464A4F",
"s  c #4C4B4C",
"d  c #524643",
"f  c #554A46",
"g  c #594846",
"h  c #544D4B",
"j  c #5A4E4B",
"k  c #54514E",
"l  c #5A514E",
"z  c #444B54",
"x  c #4B4E55",
"c  c #464E59",
"v  c #524E53",
"b  c #4A5159",
"n  c #4B5157",
"m  c #555253",
"M  c #5B5654",
"N  c #5D5957",
"B  c #54545A",
"V  c #5C575A",
"C  c #5D5B5C",
"Z  c #60504B",
"A  c #635553",
"S  c #655955",
"D  c #6B5B56",
"F  c #645D5C",
"G  c #6B5E5C",
"H  c #725F5B",
"J  c #64615E",
"K  c #6B625D",
"L  c #71635D",
"P  c #575A61",
"I  c #5C5C63",
"U  c #515D6D",
"Y  c #655F61",
"T  c #656464",
"R  c #6B6564",
"E  c #656369",
"W  c #6A6769",
"Q  c #6C6B6D",
"!  c #696966",
"~  c #726462",
"^  c #7B6762",
"/  c #756A66",
"(  c #7C6A63",
")  c #736D6C",
"_  c #7B6E6A",
"`  c #706769",
"'  c #7B716E",
"]  c #72716F",
"[  c #6D6C72",
"{  c #6C6F79",
"}  c #726E72",
"|  c #796E70",
" . c #6E727B",
".. c #65717F",
"X. c #747274",
"o. c #7B7474",
"O. c #7E7976",
"+. c #75767B",
"@. c #7A767A",
"#. c #75797C",
"$. c #7D7A7B",
"%. c #826E6B",
"&. c #806D66",
"*. c #837067",
"=. c #84726D",
"-. c #89746D",
";. c #8E786E",
":. c #837672",
">. c #857974",
",. c #8B7D76",
"<. c #847C7C",
"1. c #8A7E7B",
"2. c #8B7570",
"3. c #927C75",
"4. c #937D79",
"5. c #8B817D",
"6. c #86807E",
"7. c #95837C",
"8. c #9C8B7E",
"9. c #95857B",
"0. c #6A798D",
"q. c #697689",
"w. c #757B83",
"e. c #7B7C83",
"r. c #7B7F8B",
"t. c #6D7D93",
"y. c #827E81",
"u. c #7E8286",
"i. c #7E838D",
"p. c #728195",
"a. c #788294",
"s. c #75859B",
"d. c #78869A",
"f. c #78889E",
"g. c #848385",
"h. c #8B8482",
"j. c #8D8885",
"k. c #82848B",
"l. c #85898E",
"z. c #8C8A8B",
"x. c #868889",
"c. c #938683",
"v. c #938A84",
"b. c #9C8C84",
"n. c #948C8B",
"m. c #9B8E8D",
"M. c #988480",
"N. c #94918B",
"B. c #9A928C",
"V. c #9C9387",
"C. c #858B94",
"Z. c #8C8E90",
"A. c #8F9092",
"S. c #969295",
"D. c #9A9B9D",
"F. c #9A9695",
"G. c #A2938B",
"H. c #A5998F",
"J. c #A19387",
"K. c #A49591",
"L. c #A69C94",
"P. c #AA9D96",
"I. c #A39C9B",
"U. c #AD9E9A",
"Y. c #ADA39C",
"T. c #AFA597",
"R. c #B2A49B",
"E. c #B2A79B",
"W. c #9B9AA1",
"Q. c #9198A2",
"!. c #A49FA2",
"~. c #9EA0A1",
"^. c #AAA5A3",
"/. c #ADAAA3",
"(. c #AFAAA9",
"). c #B1A4A1",
"_. c #B3AAA5",
"`. c #BAAEA6",
"'. c #B7AEAA",
"]. c #B5B1AC",
"[. c #BCB2AC",
"{. c #BBB6B2",
"}. c #B6B3B0",
"|. c #C1B7AB",
" X c #C2B9B4",
".X c #C4BDBA",
"XX c #C8BFBE",
"oX c #CAC2BD",
"OX c #CCC5C3",
"+X c None",
/* pixels */
"+X+X+X+X+X+X+X+X+X+X+X+X+X+X+X+X+X+X+X+X_ +X+X+X+X+X+X+X+X+X+X+X+X+X+X+X+X+X+X+X",
"+X+X+X+X+X+X+X+X+X+X+X+X+X+X+X+X+X+X+XX.h.@.+X+X+X+X+X+X+X+X+X+X+X+X+X+X+X+X+X+X",
"+X+X+X+X+X+X+X+X+X+X+X+X+X+X+X+X+X+X+X<.I.v./ +X+X+X+X+X+X+X+X+X+X+X+X+X+X+X+X+X",
"+X+X+X+X+X+X+X+X+X+X+X+X+X+X+X+X+XS.v.(.'.I.n.<.+X+X+X+X+X+X+X+X+X+X+X+X+X+X+X+X",
"+X+X+X+X+X+X+X+X+X+X+X+X+X+X+X+Xe.N.6.5.j.j.v.z.X.+X+X+X+X+X+X+X+X+X+X+X+X+X+X+X",
"+X+X+X+X+X[ +X+X+X+X+X+X+X+X+X+X+X[ R B.n.I.h.X.X.+X+X+X+X+X+X+X+X+X+X+X+X+X+X+X",
"+X+X+X+X+X[ +X+X+X+X+X+Xu.Z.T k X.g.6.j.B.N.<.>.z.F k +.+X+X+X+X+X+X[ [ +X+X+X+X",
"+X+X+X+Xr.#.g.+X+X+X+X[ e.X.m l m O.o.M T N T ) C k l J X.+.+X+X+X+Xi.C.+X+X+X+X",
"+X+X+X+Xw.[ g.+X+X+X+Xv p k G >.+Xo.) ] ] ' _ J +XR G M F W m +X+X+Xl.k.+X+X+X+X",
"+X+X+Xs V m ! +X+X+XX.S h J z.6.+Xo.o.X.+.X.Q ] +XO.h.Q h l +X+X+X+XC.z.u.+X+X+X",
"+X+X+X[ M v B +X+X+Xo.n.D.X.z.h.g.g.$.X.X.Q L O.z.>.A.o.$.>.y.+X+X+XC.C.C +X+X+X",
"+X+X+XW.} D.u.+X+Xm h.W.A.X.J ! E C M k M k f J W Q T { Z.S.X.Q +X+Xa.Q.#.Q +X+X",
"+X+X+X+X) D.l.+X+X+Xy.$.Q T N k p h r r Z r r r d f M Q $.O.Q O.+X+Xw.#.T W +X+X",
"+X+X+X+X} $.C.+XN Y W I m m A D ^ *.&.-.8._ L L D A S F T W k.F +X+Xw.Q N +X+X+X",
"+X+X+X+XS.) l.+XY h F N l K 9.8.9.( D K _ K K *.;.*.^ L R R e.C E e.C.y.g.+X+X+X",
"+X+X+X+XS.[ l.E W R N K 5.J.-.k 6 * @ + $ $ * 6 h L 9.3.%.>.| X.W  .i.X.+X+X+X+X",
"+X+X+X+X#.#.#.C ] J ] 8.H.J < .                   * j 8.H.5.5.$.Q I e.u.+X+X+X+X",
"+X` m p s m k N ! ! V.T.N @               .         @ r 8.H.5.n.} E [ #.#.+X+X+X",
"+Xe w , = , 6 7 k 9./.J @       .       . . . .   . . @ M B.H.c.W u 0 6 5 8 k +X",
"+X+Xr f f S p e p H.8.=     . . . .     . . . +   . @   = >.`.>.q 0 0 6 5 6 +X+X",
"+X+X+X_ K 5._ N / T.! o o . . . . @ . @ . @ @ @ @ @ . . . G E.1.i q F g l +X+X+X",
"+X+X+XL r h / K O.H.p O @ . + @ @ @ @ @ @ @ @ @ @ @ . . . e I.K.S G T q S +X+X+X",
"+X+XA D J L L ! L _ e + # @ @ @ @ & @ @ * * @ @ . @ @ .   6 m.1.A G F M O.+X+X+X",
"+X+Xg D ( ( L D K k e O @ # $ & @ @ * * = , & * @ @ @ .   0 o.l j h D D A h +X+X",
"+X+X-.M.R.U.m.9.V.k O + + $ & & $ ; 3 $ 3 > ; $ @ . . $ . + u %.&._ b.9._ ~ +X+X",
"+X+X%.%.4.M.,.5.V.7 o + $ $ & : 8 5 3 $ > : ; $ o @ . $ .   > 1.9.,.P.P.M.:.+X+X",
"+X+X3.3.b.H.V.8.F.< + + + # # < 3 3 t 3 > $ > $ @ o . .   o $ O.b.,.H.R.G.,.+X+X",
"+X+Xb.4.R.|.T.T./.5 + + # # @ & $ ; 4 > > $ $ O + + . + o o $ z.R.J.[.oX`.G.U.+X",
"+X+X-.4.R.`.R.R./.= o o . # # # $ : ; - - + @ + O $ + o   X $ z.).H.[. X`.1.+X+X",
"+X+X3.K.`.[._.E.[.t o o + +   # $ - - : $ + + + # O o O   o > S.'.P.[.'.`.=.+X+X",
"+X+XM.!.oXOX{.'.}.u O O + O o $ X # $ $ # O O . o + X + + X 7 !.'.(..X.X{.Y.+X+X",
"+X+X4.U.oXOX}.Y.].0 . . . + # O # # # # #   # O o # + O X   5 I._._. X{.'.Y.+X+X",
"+X+X%.=.M.n.h.:.B.5 X o + o O + # + # % # + O # # X X O     - X.:.o.c.c.y.4.+X+X",
"m.~ ^ 2.h.n.c.,.B.> X + # + # # O # & # + & # o + # O O #   : } A R y.m._ Y H | ",
"b.&.2.1.n.m.h.1.N.> X o + $ % # & - # + # O # % # # # O X X 2 y.o.n.^.{.1.^ H R ",
"m.y.:.1.c.m.<.:.z.5 O O % + $ % - & - - % - # - # # X # X X 4 w.y.S.^._.y.| w.e.",
"+X^ G >.y.y.y.y.~.u X + % & : & # & > - % : % # # % # # O O t q.@.W [ [ Y S { +X",
"+X+X~ | | | } | D.a X X % : < : & - % @ % % % % % : % # O O t q.Y v B B V +X+X+X",
"+X+X} { I v I Y u.P 7 y a z n n n a a z c n b b c c y y y c U q.E U P P v +X+X+X",
"+X+X+XY B q B { u...p.p.s.s.f.f.f.d.a.a.d.s.f.f.f.s.s.t.t.t.t.t.{ I v b v +X+X+X"
};
