/* XPM */
static char *result[] = {
/* columns rows colors chars-per-pixel */
"40 40 235 2 ",
"   c #010101",
".  c #0B0B09",
"X  c #090807",
"o  c #181816",
"O  c #10100D",
"+  c #261D0D",
"@  c #382813",
"#  c #332816",
"$  c #222221",
"%  c #2D2D28",
"&  c #363328",
"*  c #3D3D3B",
"=  c #3A3B34",
"-  c #302B2C",
";  c #452E12",
":  c #492F12",
">  c #493013",
",  c #4B371B",
"<  c #5C3B13",
"1  c #412A0F",
"2  c #603E14",
"3  c #493625",
"4  c #513D25",
"5  c #443B34",
"6  c #5E441D",
"7  c #65481E",
"8  c #7B541D",
"9  c #7F581F",
"0  c #774F19",
"q  c #44443D",
"w  c #56482D",
"e  c #634D2A",
"r  c #7A5724",
"t  c #6D5A37",
"y  c #735C36",
"u  c #6B5035",
"i  c #78623A",
"p  c #353246",
"a  c #273068",
"s  c #26205B",
"d  c #573841",
"f  c #38434D",
"g  c #3D436C",
"h  c #4E4E44",
"j  c #54544A",
"k  c #555347",
"l  c #474A54",
"z  c #5D5D53",
"x  c #565755",
"c  c #6A5A4C",
"v  c #776747",
"b  c #66665B",
"n  c #736855",
"m  c #7F7052",
"M  c #585866",
"N  c #555470",
"B  c #5E6465",
"V  c #6A6C62",
"C  c #717166",
"Z  c #777569",
"A  c #7C7B75",
"S  c #686C76",
"D  c #665667",
"F  c #83591D",
"G  c #835B22",
"H  c #865D28",
"J  c #825C35",
"K  c #8A642A",
"L  c #936523",
"P  c #956926",
"I  c #9A6F2A",
"U  c #966B29",
"Y  c #886938",
"T  c #936E31",
"R  c #926D3A",
"E  c #987234",
"W  c #A57C34",
"Q  c #A97E34",
"!  c #A3783F",
"~  c #845F48",
"^  c #856B45",
"/  c #897346",
"(  c #8B7952",
")  c #917153",
"_  c #837C77",
"`  c #8C716C",
"'  c #A17F5D",
"]  c #AC8237",
"[  c #B28638",
"{  c #978559",
"}  c #8C825B",
"|  c #A48D5E",
" . c #AD8B57",
".. c #B78C56",
"X. c #A79159",
"o. c #B5955B",
"O. c #B68247",
"+. c #988A63",
"@. c #848477",
"#. c #968E76",
"$. c #998F6C",
"%. c #A99464",
"&. c #B79868",
"*. c #A89875",
"=. c #B49C76",
"-. c #A58C60",
";. c #BDA578",
":. c #BBA868",
">. c #CA904D",
",. c #C29C66",
"<. c #D7AA6B",
"1. c #C4A77A",
"2. c #C4B17D",
"3. c #CBAE6E",
"4. c #E2B676",
"5. c #433590",
"6. c #4C39A5",
"7. c #4C5A92",
"8. c #54548D",
"9. c #76568C",
"0. c #6F7589",
"q. c #5B47B8",
"w. c #4F56AE",
"e. c #6A59AD",
"r. c #5A66B7",
"t. c #5D6FA9",
"y. c #676DAA",
"u. c #6875AB",
"i. c #767BB2",
"p. c #7270AF",
"a. c #5C639F",
"s. c #6A58C5",
"d. c #715DCB",
"f. c #7551DE",
"g. c #6B50D1",
"h. c #5A6BCC",
"j. c #7564CC",
"k. c #6876C8",
"l. c #7B69D5",
"z. c #6A78D6",
"x. c #7751E9",
"c. c #687EE4",
"v. c #87748C",
"b. c #8565A3",
"n. c #8777D6",
"m. c #8A76D6",
"M. c #977DE9",
"N. c #9276F5",
"B. c #896AE9",
"V. c #815EC9",
"C. c #748389",
"Z. c #7E8E94",
"A. c #7881A9",
"S. c #7987B9",
"D. c #778FAC",
"F. c #4580AC",
"G. c #7989C9",
"H. c #7898C8",
"J. c #6C89DB",
"K. c #7687D9",
"L. c #6F92D0",
"P. c #79A7CF",
"I. c #6B85E7",
"U. c #7889E6",
"Y. c #6694E6",
"T. c #7896EA",
"R. c #98978A",
"E. c #8F8F8F",
"W. c #A49992",
"Q. c #A89891",
"!. c #BBB383",
"~. c #BDB78A",
"^. c #A9A79A",
"/. c #BAA78A",
"(. c #9C83A9",
"). c #8589BA",
"_. c #8C97A9",
"`. c #AA91AF",
"'. c #AEAAA8",
"]. c #B4ADB6",
"[. c #C9B583",
"{. c #C5BD8D",
"}. c #C8B486",
"|. c #C8B48C",
" X c #C7BAB2",
".X c #D6C38E",
"XX c #CAC394",
"oX c #D5C592",
"OX c #DACA99",
"+X c #8396CC",
"@X c #9297CC",
"#X c #848AD4",
"$X c #8B99D5",
"%X c #9192CB",
"&X c #A589C9",
"*X c #8AA8D9",
"=X c #97A7D7",
"-X c #95AECC",
";X c #A3A5CB",
":X c #A7A9D6",
">X c #A7B9DB",
",X c #ACB5CD",
"<X c #818DE6",
"1X c #9887EA",
"2X c #8898E9",
"3X c #969BEB",
"4X c #9A86F5",
"5X c #8999F3",
"6X c #929DF1",
"7X c #AC99FB",
"8X c #A99CE4",
"9X c #8BA7E8",
"0X c #97ABE9",
"qX c #88A6F3",
"wX c #9BA8F4",
"eX c #8FB5F3",
"rX c #B3A9E7",
"tX c #AABDED",
"yX c #A6B7E6",
"uX c #A3ADF4",
"iX c #A4ADF9",
"pX c #B6AAF9",
"aX c #A9B5F7",
"sX c #B7B0ED",
"dX c #C6B6D2",
"fX c #99C5F6",
"gX c #A8C3E9",
"hX c #A8C8F5",
"jX c #BBDAF9",
"kX c #B7CCED",
"lX c #CECAD0",
"zX c #E2E3DE",
"xX c #CACFF0",
"cX c #CBE6F8",
"vX c None",
/* pixels */
"P P P P P P P T i.r.r.T.k.K.h.w.w.r.r.L.k.K.r.w.w.k.k.J.z.K.w.8.i I P L P I I I ",
"G 9 r K G G F y :X3XaXT.<XuX6X3X2X3XaXqX<XiX6X3X<X5XhXT.<XuX9Xi.t r 8 9 F F 9 9 ",
"^ { $.{ { } { v :XuXaXc.2XuXiXaXaX6XaXI.5XuXiXaXwX6XuXc.2XuXuXi.v +.$.+.X.} } t ",
"$.{.{.!.~.~.!.} :XpX6XeXqX5XqXqXiX5X6XeXqX5XqXeXwX5X6X0XqX5X9XA.$.{.~.~.!.~.;.} ",
"*.XXXXXX{.{.{.$.@X0X<XtXT.I.U.U.<X<XK.tXY.I.U.U.U.I.U.eXT.I.T.u.*.XXXX{.{.{.XX+.",
"+.XXXXXXXX{.!.n +XU.z.Y.Y.eX5X<XU.I.c.Y.Y.eX5XU.T.z.I.Y.U.eX5XS.*.XXXXXXXX{.~.v ",
"} :.XXXXXX;.{ w +XT.uXc.I.fXT.U.T.U.wXc.I.fXY.K.T.I.wXc.Y.fXT.u.} :.XXXX~.;.{ 3 ",
"i X.%.X.X.{ e 5 *X<X:XK.P.L.L.+XeXJ.0XU.2XY.U.9X*XK.:X#XH.L.2Xy.v X.%.X.X.{ e @ ",
"r Y } Y ) ^ , 3 L._.=.*.=.$.*.E.=XyXyX>X0X$XyX=XW.*.*.*.*.#.%Xy.y Y / / / Y , @ ",
"T 9 7 6 4 2 : , H.'.[.}.[.2.2.W.tXxXkXkXgXtX0X@X!.[.[.[.2.;.i.i.R H 7 7 6 6 > ; ",
"T ] 9 9 F F < : G. XoX.X.X[.2.^.0XtXgX0XyXyXgX:XXXOXoXoX[.}.).y.R Q F F 9 8 < > ",
"T [ T T J F 2 3 @X].OXoXOX.XOXR.$XtXxXkX;X+X0X@X{.OXoXoXoX|.).).) Q H R K r < > ",
"T ] I /._ H < < ;XE.| | | { X.@.>X,XzXzX^.B A._.+.-.-.{ +.{ ).S.R Q I Q.*.F 2 : ",
"i ] -.dX`.J c 3 :Xv.t t ^ v i  XzXlXW.A V z @.R.n t m ^ e t i.u./ ..^ dXdX~ 2 > ",
"( `.dXpX4Xb. X3 @X_ t w ^.R.Z '.Z V z z j j z h z q R.R.w y u.u.) lXb.N.pX].b.d ",
"~ sX7XN.B.7X;X5 +X_ i ( ^.z Z C A @.Z V z b C b j h R.V t i ).A.) sX7XB.N.7X&X3 ",
"U m.N.f.M.4Xe.3 +XC.y v W.b z C b % X X   X o h j j R.V t i D.u.v m.1XB.f.N.b.: ",
"U ` m.1XsXd.5 4 -XC.i v R.C j V o             O q j R.A m / i.a.K ` n.rX4XV.d 1 ",
"U ! b.V.m.9.< 3 *XA } / Z C.x %                 o j E.V ^ ( S 8.J ! e.m.n.D 2 : ",
"H Q ^ b.e.y < , F.B i t Z -XV O                 O j -XS t i p g Y Q ) e.9.J < : ",
"R [ I R ~ F 7 : a k t B Z.jXC.O                 . z xXD.x n % s T [ U ~ T F 2 : ",
"Q Q I P P G < : vXt n S.L.cXE.O                 . z cX*XS.N + vXQ [ E P L G 2 1 ",
"W Q U L L F < ; vXi A *X9XcXC..                 X l hXeXqX0.$ vXW Q L L L G 2 : ",
"! Q U L K G e w vXi ].2X0XjXu.O                 . x gXjXK.,Xf vXQ  .E H H G 2 1 ",
"Q [ I L P F Q.9.vXc ,X*X>XfXD.o   o $ $ $ $ $ $ $ 0.qXjXG.kXf vXQ  X' L L F 2 1 ",
"U Q E T K ' dX8XvXZ A.*XfXT.8.o $ = * * * * * * * f G.fX*XH.p vX`.xX(.I ) F 2 @ ",
"Y T P ) v.,XpX4XpX].N T.gXk.S $ = * q * * * * * * l u.*XhX7.8.7XxX7XM.]./.0 > # ",
"u y 7 u rX7XN.x.7XyX7.S.=X@X_.& q h q = = = = = = S >XG.*X7.8.rX7XB.x.pX(.6 1 + ",
"vXu e V M.N.V.N.4Xl.r.S.=X*X_.@.V C C C C V V C R._.*X-XG.u.e.1XB.f.1X1Xe.w @ vX",
"vXvX@ `.M.B.M.pXd.j.a.*X>X+X+XE.* b C @.@.A A Z R.].G.>X9XS.rXB.M.1XpXg.j.p vXvX",
"vXvXvXvX8Xg.V.m.l.j.5.-X*XH.E.h t -.| ) { ' | / k A +X+XgXu.#X1Xg.l.n.n.s.s vXvX",
"vXvXvXvXd.d.l.j.1Xe.a t.a.i./. .,.4.<.3.&.1.1.o.:.3.E.u.t.7.6.j.d.j.j.1Xq.vXvXvX",
"vXvXvXvXvXq.e.q.q.5.vXvXvX/.;.=.,.<.<.>...=.2.;.&.<.<.' vXvXvXvXq.q.q.q.vXvXvXvX",
"vXvXvXvXvXvXvXvXvXvXvXvXvXvX&.&.%.1.,.' O...&.&.%.1.,.vXvXvXvXvXvXvXvXvXvXvXvXvX",
"vXvXvXvXvXvXvXvXvXvXvXvXvXvXo.&./.}.1.>.>.>...&.1.|.1.vXvXvXvXvXvXvXvXvXvXvXvXvX",
"vXvXvXvXvXvXvXvXvXvXvXvXvXvXo.:.&.|.&.O.>.Q ..,.&.}.vXvXvXvXvXvXvXvXvXvXvXvXvXvX",
"vXvXvXvXvXvXvXvXvXvXvXvXvXvXvXo.;.;./.}.1.,...o./.vXvXvXvXvXvXvXvXvXvXvXvXvXvXvX",
"vXvXvXvXvXvXvXvXvXvXvXvXvXvXvXvX1.%.&.}.&.>.>...vXvXvXvXvXvXvXvXvXvXvXvXvXvXvXvX",
"vXvXvXvXvXvXvXvXvXvXvXvXvXvXvXvXvX3.:.&.1.>.>.vXvXvXvXvXvXvXvXvXvXvXvXvXvXvXvXvX",
"vXvXvXvXvXvXvXvXvXvXvXvXvXvXvXvXvXvXvXvXvXvXvXvXvXvXvXvXvXvXvXvXvXvXvXvXvXvXvXvX"
};
