/* XPM */
static char *result[] = {
/* columns rows colors chars-per-pixel */
"48 40 176 2 ",
"   c #1C140C",
".  c #11100F",
"X  c #1E0E14",
"o  c #141417",
"O  c #1E1D1D",
"+  c #111319",
"@  c #270908",
"#  c #380E0D",
"$  c #21160D",
"%  c #2C1A0B",
"&  c #261609",
"*  c #331E0E",
"=  c #2A1E12",
"-  c #2A161A",
";  c #251819",
":  c #38181E",
">  c #3C230F",
",  c #2D271F",
"<  c #252118",
"1  c #342212",
"2  c #3A2512",
"3  c #352B1F",
"4  c #1B1B25",
"5  c #191E29",
"6  c #2C1C24",
"7  c #271F25",
"8  c #371A21",
"9  c #242221",
"0  c #2A2524",
"q  c #2C2A25",
"w  c #2B2B29",
"e  c #332C2A",
"r  c #3A212A",
"t  c #35352E",
"y  c #3B342B",
"u  c #2C2D33",
"i  c #3D3A3B",
"p  c #383B39",
"a  c #420D0D",
"s  c #4C0E0E",
"d  c #4E0F10",
"f  c #42181B",
"g  c #5D1314",
"h  c #671515",
"j  c #681718",
"k  c #7E1719",
"l  c #74191A",
"z  c #7A1718",
"x  c #422914",
"c  c #492D16",
"v  c #432E1C",
"b  c #4D311A",
"n  c #54361D",
"m  c #57381E",
"M  c #5A3A1F",
"N  c #401A20",
"B  c #492426",
"V  c #443823",
"C  c #5C3C21",
"Z  c #462E32",
"A  c #483A37",
"S  c #593332",
"D  c #652527",
"F  c #613F23",
"G  c #783839",
"H  c #4B4023",
"J  c #474035",
"K  c #514B3E",
"L  c #57543C",
"P  c #554A29",
"I  c #644125",
"U  c #694527",
"Y  c #6E4929",
"T  c #6B4729",
"R  c #714B2B",
"E  c #7C6C3D",
"W  c #5E3E42",
"Q  c #3B4545",
"!  c #444B4B",
"~  c #4A514D",
"^  c #5A554B",
"/  c #555447",
"(  c #445557",
")  c #4C5B5B",
"_  c #4C5455",
"`  c #585857",
"'  c #615E56",
"]  c #725653",
"[  c #644948",
"{  c #59605F",
"}  c #66625B",
"|  c #69605F",
" . c #7C7F58",
".. c #485E61",
"X. c #4B6063",
"o. c #5D6560",
"O. c #546767",
"+. c #5B6F70",
"@. c #5C7274",
"#. c #5D767A",
"$. c #626968",
"%. c #726E66",
"&. c #77736A",
"*. c #79756C",
"=. c #657778",
"-. c #7D7A73",
";. c #747874",
":. c #891A1C",
">. c #94191A",
",. c #A31A1C",
"<. c #893336",
"1. c #857537",
"2. c #834A4B",
"3. c #904747",
"4. c #80714E",
"5. c #847F77",
"6. c #98863A",
"7. c #A0893C",
"8. c #B59439",
"9. c #989658",
"0. c #B3A95E",
"q. c #87847D",
"w. c #A09D64",
"e. c #AAA564",
"r. c #B7B16E",
"t. c #E2D26F",
"y. c #5F7C81",
"u. c #627D81",
"i. c #698387",
"p. c #7A8A8B",
"a. c #768587",
"s. c #719196",
"d. c #7E9295",
"f. c #739499",
"g. c #7B999E",
"h. c #7D9EA3",
"j. c #7FA0A6",
"k. c #8C8982",
"l. c #938F89",
"z. c #918E87",
"x. c #839187",
"c. c #879495",
"v. c #9D9992",
"b. c #8FA19F",
"n. c #A4A685",
"m. c #839DA1",
"M. c #99ACAC",
"N. c #8FACB2",
"B. c #87ADB4",
"V. c #93ADB1",
"C. c #9CAFB2",
"Z. c #8DB5BC",
"A. c #94B6BA",
"S. c #A3B4AE",
"D. c #A9B6A5",
"F. c #A1B4B5",
"G. c #A4BABC",
"H. c #B4C5BA",
"J. c #98BBC2",
"K. c #A7BEC1",
"L. c #A4C1C5",
"P. c #ACC3C4",
"I. c #A2C5CA",
"U. c #ADCACD",
"Y. c #ABC7CB",
"T. c #B5CBCD",
"R. c #B3C8C8",
"E. c #AFCBD0",
"W. c #B4CDD2",
"Q. c #B4D1D3",
"!. c #BCD4D5",
"~. c #BFD8D8",
"^. c #B7D9DB",
"/. c #C3DBDB",
"(. c #CBE4E4",
"). c None",
/* pixels */
").).).).).).).).).).).).).).).).).).).).).).).).).).).).).).).).).).).).).).).).).).).).).).).).",
").).).).).).).).).).).).).).).).).).).).).).).).).).).).).).).).).).).).).).).).).).).).).).).).",
").).).).).).).).).).).).).).).).).).).).).).).).).).).).).).).).).).).).).).).).).).).).).).).).",
").).).).).).).).).).).).).).).).).).).).).).).).).).).).).).).).).).).).).).).).).).).).).).).).",
").).).).).).).).).).).).).).).).).).).).).).).).).).).).).).).).).).).).).).).).).).).).).).).).",
").).).).).).).).).).).).).).).).).).).).).).).).).).).).).).).).).).).).).).).).).).).).).).).).",
").).).).).).).).).).).).).).).).).).).).).).).).).).).).).).).).).).).).).).).).).).).).).).).).",
").).).).).).).).).).).).).).).).).).).).).).).).).).).).).).).).).).).).).).).).).).).).).).).).",
").).).).).).).).).).).).).).).).).).).).).).).  $   ).).).).).).).).).).).).).).).).).).).).).).",
").).).).).).).).).).).).).).).).).).).).$ 1 v b C C m x 1   ).).).).).).).).).).).).).).).).).).",
").).).).).).).).).).).).).).).).).).).2 n M I T U R Y R C b 1 ).).).).).).).).).).).).).).).).).",
").).).).).).).).).).).).).).).).).).n R Y I n x c x n n I R c & ).).).).).).).).).).).).).).).).",
").).).).).).).).).).).).).).).).).2 C U C x % < , , = % x c c b $ ).).).).).).).).).).).).).).).",
").).).).).).).).).).).).).).).).).= * 1 * e +.c.N.V.g.@.3 2 I C % ).).).).).).).).).).).).).).).",
").).).).).).).).).).).).).).).).).1 =   ~ V.E.W.W.W.W.L.~ > I F 2 ).).).).).).).).).).).).).).).",
").).).).).).).).).).).).).).).).v A _ c.A.W.W.W.W.W.!.J.t > C U b ).).).).).).).).).).).).).).).",
").).).).).).).).).).).).).).).).K p.=.!.Q.T.T.C.;.=.c.d.Q * c > % w ....).).).).).).).).).).).).",
").).).).).).).).).).).).).).).).q y ~ K.T.P.o.y V V V X.h.t & w ..+.y.X.).).).).).).).).).).).).",
").).).).).).).).).).).).).).).).< L L p.P.{ P / n.t.e.H.Y.) , #.#.f.y.( ).).).).).).).).).).).).",
").).).).).).).).).).l.).).).).).). .e.x.R.-.0.9.w.r.D.!.Q.#.( #.#.f.O.).).).).).).).).).).).).).",
").).).).).).).).).).k.l.k.).).).).S.D.F.!./.H.D.D.R./.~.Q.f.f.f.s.y.).).).).).).).).).).).).).).",
").).).).).).).).).).).q.&.z.).).).R.K.M.T.(.(./.(.(./.~.U.J.Z.#.).).).).).).).).).).).).).).).).",
").).).).).).).).).).).q.-.%.k.).).S.K.C.G.G.F.M.F./.^.!.I.J.i.).).).).).).).).).).).).).).).).).",
").).).).).).).).).).).).v.q.%.-.).=.c.S.K.R./.R.H.~.Q.I.B.i.).).).).).).).).).).).).).).).).).).",
").).).).).).).).).).).).).).5.%.} ).).p.V.K.Y.Y.I.Z.m.u.{ i ).).).).).).).).).).).).).).).).).).",
").).).).).).).).).).).).).).).&.} ` ).).).Q _ ! A Z u i p 0 O ).).).).).).).).).).).).).).).).).",
").).).).).).).).).).).).).).).).' ^ / ).).0 e D 3.<.G Z 5 + o o ).).).).).).).).).).).).).).).).",
").).).).).).).).).).).).).).).).).^ A / 1.0 ; j 2.G z j r 5 O ; ).).).).).).).).).).).).).).).).",
").).).).).).).).).).).).).).).).).).K E 7.i 0 h h j z g 8 5 7 0 ).).).).).).).).).).).).).).).).",
").).).).).).).).).).).).).).).).).).6.8.4.b.a.e f : 6 6 ' m.{ 9 ).).).).).).).).).).).).).).).).",
").).).).).).).).).).).).).).).).).).).).o.d.*.[ D S $.] c.^.i.0 ).).).).).).).).).).).).).).).).",
").).).).).).).).).).).).).).).).).).).).).! B 8 8 - B l S =.Q 0 ).).).).).).).).).).).).).).).).",
").).).).).).).).).).).).).).).).).).).).).).- 6 4 + 6 6 X ).).9 ).).).).).).).).).).).).).).).).",
").).).).).).).).).).).).).).).).).).).).).).:.:.h # l k h ).).).).).).).).).).).).).).).).).).).",
").).).).).).).).).).).).).).).).).).).).).).>.>.z s ,.>.l ).).).).).).).).).).).).).).).).).).).",
").).).).).).).).).).).).).).).).).).).).).).@ a a @ s s # ).).).).).).).).).).).).).).).).).).).",
").).).).).).).).).).).).).).).).).).).).).).).).).).).).).).).).).).).).).).).).).).).).).).).).",
").).).).).).).).).).).).).).).).).).).).).).).).).).).).).).).).).).).).).).).).).).).).).).).).",
").).).).).).).).).).).).).).).).).).).).).).).).).).).).).).).).).).).).).).).).).).).).).).).).",
").).).).).).).).).).).).).).).).).).).).).).).).).).).).).).).).).).).).).).).).).).).).).).).)."
};
