/* XPM */
static char *result[] = {
/* columns rows colors chars-per-pixel */
"48 40 175 2 ",
"   c #0C0C0A",
".  c #0B0806",
"X  c #150C07",
"o  c #170C0A",
"O  c #1E1106",
"+  c #1A130B",
"@  c #0C0F13",
"#  c #0F101A",
"$  c #131319",
"%  c #1E1C1B",
"&  c #1A1618",
"*  c #240909",
"=  c #250707",
"-  c #241404",
";  c #22150B",
":  c #2C1A0D",
">  c #29180A",
",  c #341D0B",
"<  c #2D1E11",
"1  c #2F181C",
"2  c #3A171A",
"3  c #3D240F",
"4  c #37200F",
"5  c #23221F",
"6  c #2E2514",
"7  c #3C2512",
"8  c #332317",
"9  c #3A301F",
"0  c #1C1B26",
"q  c #1A1E2A",
"w  c #141724",
"e  c #291A20",
"r  c #1D2324",
"t  c #1C222D",
"y  c #242121",
"u  c #2A2525",
"i  c #21222F",
"p  c #2C2C2C",
"a  c #2E2029",
"s  c #3A3124",
"d  c #222432",
"f  c #2E3636",
"g  c #373333",
"h  c #353836",
"j  c #461311",
"k  c #591312",
"l  c #651616",
"z  c #791817",
"x  c #402712",
"c  c #472A15",
"v  c #492C15",
"b  c #4B2E18",
"n  c #402A19",
"m  c #4E3219",
"M  c #52351D",
"N  c #5D3B1E",
"B  c #7E1F21",
"V  c #562527",
"C  c #5B3B22",
"Z  c #6C2325",
"A  c #683E3B",
"S  c #39413E",
"D  c #5F401F",
"F  c #4A432E",
"G  c #4D453A",
"H  c #51563D",
"J  c #624125",
"K  c #6C4628",
"L  c #6E4A2C",
"P  c #644328",
"I  c #724C2C",
"U  c #79502D",
"Y  c #695C3B",
"T  c #7C5532",
"R  c #3A4B4C",
"E  c #344849",
"W  c #434442",
"Q  c #494A46",
"!  c #484A48",
"~  c #544C43",
"^  c #5A564C",
"/  c #404F51",
"(  c #425255",
")  c #4C595A",
"_  c #575957",
"`  c #714D4E",
"'  c #635E55",
"]  c #745553",
"[  c #59635C",
"{  c #747248",
"}  c #69655C",
"|  c #4D6363",
" . c #54686B",
".. c #546C70",
"X. c #5F797C",
"o. c #587173",
"O. c #796B66",
"+. c #7A756B",
"@. c #647172",
"#. c #697676",
"$. c #7B7C79",
"%. c #801917",
"&. c #851818",
"*. c #8D191B",
"=. c #961B1D",
"-. c #9A1B1C",
";. c #A81C1D",
":. c #842728",
">. c #CA1D22",
",. c #805430",
"<. c #88504F",
"1. c #73807E",
"2. c #C7AD3D",
"3. c #DAB637",
"4. c #B9AB4C",
"5. c #A9A55D",
"6. c #BBB15C",
"7. c #8C877E",
"8. c #95887F",
"9. c #C5AC46",
"0. c #C2B972",
"q. c #E5D569",
"w. c #EDE17D",
"e. c #F1E075",
"r. c #5F7C81",
"t. c #627D80",
"y. c #648186",
"u. c #6B8B8E",
"i. c #68858A",
"p. c #7D8C8C",
"a. c #778687",
"s. c #6E8C92",
"d. c #7B9294",
"f. c #7E9FA5",
"g. c #8B8882",
"h. c #908D86",
"j. c #96928A",
"k. c #9A9791",
"l. c #869697",
"z. c #A39F98",
"x. c #90A29F",
"c. c #A6A199",
"v. c #83A9AE",
"b. c #8DA3A3",
"n. c #96AAAB",
"m. c #9FB3AE",
"M. c #86AFB4",
"N. c #99AFB2",
"B. c #8DB8BD",
"V. c #9EB9BD",
"C. c #93B7BF",
"Z. c #AEABA3",
"A. c #A5B8B9",
"S. c #8FBAC5",
"D. c #91BAC2",
"F. c #AABFC0",
"G. c #9DC1C7",
"H. c #A2C2C6",
"J. c #ADC4C5",
"K. c #A4C4C9",
"L. c #ABC6CA",
"P. c #ADCCCD",
"I. c #B3CBCD",
"U. c #B0C3C5",
"Y. c #B3CBD0",
"T. c #B9CBD0",
"R. c #B5D1D2",
"E. c #BCD4D5",
"W. c #BFD8D8",
"Q. c #BAD8D7",
"!. c #C3DBDC",
"~. c #EBEBDC",
"^. c #CBE4E3",
"/. c #D1E9EA",
"(. c None",
/* pixels */
"(.(.(.(.(.(.(.(.(.(.(.(.(.(.(.(.(.(.(.(.(.(.(.(.(.(.(.(.(.(.(.(.(.(.(.(.(.(.(.(.(.(.(.(.(.(.(.(.",
"(.(.(.(.(.(.(.(.(.(.(.(.(.(.(.(.(.(.(.(.(.(.(.(.(.(.(.(.(.(.(.(.(.(.(.(.(.(.(.(.(.(.(.(.(.(.(.(.",
"(.(.(.(.(.(.(.(.(.(.(.(.(.(.(.(.(.(.(.(.(.(.(.(.(.(.(.(.(.(.(.(.(.(.(.(.(.(.(.(.(.(.(.(.(.(.(.(.",
"(.(.(.(.(.(.(.(.(.(.(.(.(.(.(.(.(.(.(.(.(.(.(.(.(.(.(.(.(.(.(.(.(.(.(.(.(.(.(.(.(.(.(.(.(.(.(.(.",
"(.(.(.(.(.(.(.(.(.(.(.(.(.(.(.(.(.(.(.(.(.(.(.(.(.(.(.(.(.(.(.(.(.(.(.(.(.(.(.(.(.(.(.(.(.(.(.(.",
"(.(.(.(.(.(.(.(.(.(.(.(.(.(.(.(.(.(.(.(.(.(.(.(.(.(.(.(.(.(.(.(.(.(.(.(.(.(.(.(.(.(.(.(.(.(.(.(.",
"(.(.(.(.(.(.(.(.(.(.(.(.(.(.(.(.(.(.(.(.(.(.(.(.(.(.(.(.(.(.(.(.(.(.(.(.(.(.(.(.(.(.(.(.(.(.(.(.",
"(.(.(.(.(.(.(.(.(.(.(.(.(.(.(.(.(.(.(.(.(.(.(.(.(.(.(.(.(.(.(.(.(.(.(.(.(.(.(.(.(.(.(.(.(.(.(.(.",
"(.(.(.(.(.(.(.(.(.(.(.(.(.(.(.(.(.(.(.(.(.(.      (.(.(.(.(.(.(.(.(.(.(.(.(.(.(.(.(.(.(.(.(.(.(.",
"(.(.(.(.(.(.(.(.(.(.(.(.(.(.(.(.(.(.  < 7 I C D c M 8 X (.(.(.(.(.(.(.(.(.(.(.(.(.(.(.(.(.(.(.(.",
"(.(.(.(.(.(.(.(.(.(.(.(.(.(.(.(.(.: v v I I T N T J K C 6 (.(.(.(.(.(.(.(.(.(.(.(.(.(.(.(.(.(.(.",
"(.(.(.(.(.(.(.(.(.(.(.(.(.(.(.(.; c T v m J 7 m 7 M P U T C (.(.(.(.(.(.(.(.(.(.(.(.(.(.(.(.(.(.",
"(.(.(.(.(.(.(.(.(.(.(.(.(.(.(.  J 7 3 m : - - * - > x M I L n (.(.(.(.(.(.(.(.(.(.(.(.(.(.(.(.(.",
"(.(.(.(.(.(.(.(.(.(.(.(.(.(.(.: v M 7 > y.D.D.H.D.#.+ , 7 7 ; (.(.(.(.(.(.(.(.(.(.(.(.(.(.(.(.(.",
"(.(.(.(.(.(.(.(.(.(.(.(.(.(.(.3 K C 7 S G.Y.Y.Y.I.Y.G.f X O < (.(.(.(.(.(.(.(.(.(.(.(.(.(.(.(.(.",
"(.(.(.(.(.(.(.(.(.(.(.(.(.(.(.C U I 7 + L.Y.Y.Y.Y.Y.Y.P.n.! W m (.(.(.(.(.(.(.(.(.(.(.(.(.(.(.(.",
"(.(.(.(.(.(.(.(.(.(.(.(...E (., , C 4 f V.N.) a.I.Y.Y.Y.Y.[ L.8 (.(.(.(.(.(.(.(.(.(.(.(.(.(.(.(.",
"(.(.(.(.(.(.(.(.(.(.(.(.| y.t.X.o - + B.! < 6 > : ! R.H.K.h < @ (.(.(.(.(.(.(.(.(.(.(.(.(.(.(.(.",
"(.(.(.(.(.(.(.(.(.(.(.(.t y.B.( f.+ R K.E.4.e.~.H 9 [ I.N.F { (.(.(.(.(.(.(.(.(.(.(.(.(.(.(.(.(.",
"(.(.(.(.(.(.(.(.(.(.(.(.(.r.y.....R i.Q.E.m.6.0.5.q._ Q.#.w.{ (.(.(.(.(.(.k.(.(.(.(.(.(.(.(.(.(.",
"(.(.(.(.(.(.(.(.(.(.(.(.(.(.u.f.s.v.M.Q.W.!.^.m.x.W.^.!.F.A.J.(.(.(.(.h.h.g.(.(.(.(.(.(.(.(.(.(.",
"(.(.(.(.(.(.(.(.(.(.(.(.(.(.(.(.R D.S.R.W.!.^././.^.^.F.A.U.Y.(.(.(.c.} j.(.(.(.(.(.(.(.(.(.(.(.",
"(.(.(.(.(.(.(.(.(.(.(.(.(.(.(.(.(.s.D.K.E.W.!.p.1.p.A.W.U.I.T.(.(.z.} +.O.(.(.(.(.(.(.(.(.(.(.(.",
"(.(.(.(.(.(.(.(.(.(.(.(.(.(.(.(.(.(.o.S.H.E.Q.U.W.W.W.P.A.J.p (.$._ 7.Z.(.(.(.(.(.(.(.(.(.(.(.(.",
"(.(.(.(.(.(.(.(.(.(.(.(.(.(.(.(.(.(.g ^ y.C.G.P.R.R.E.L.@.(.(.^ } j.(.(.(.(.(.(.(.(.(.(.(.(.(.(.",
"(.(.(.(.(.(.(.(.(.(.(.(.(.(.(.(.(.% % g W $ $ & 5 R @ (.(.(.! ^ g.(.(.(.(.(.(.(.(.(.(.(.(.(.(.(.",
"(.(.(.(.(.(.(.(.(.(.(.(.(.(.(.(.  & @ t 1 ] :.<.Z 5 p (.(._ G } (.(.(.(.(.(.(.(.(.(.(.(.(.(.(.(.",
"(.(.(.(.(.(.(.(.(.(.(.(.(.(.(.(.e y q a k =.V ` z % 5 9.^ s } (.(.(.(.(.(.(.(.(.(.(.(.(.(.(.(.(.",
"(.(.(.(.(.(.(.(.(.(.(.(.(.(.(.(.u % t 1 k ;.l k -.r 1 2.^ H (.(.(.(.(.(.(.(.(.(.(.(.(.(.(.(.(.(.",
"(.(.(.(.(.(.(.(.(.(.(.(.(.(.(.(.p ) V._ w 0 1 1 0 b.b.Y 3.9.(.(.(.(.(.(.(.(.(.(.(.(.(.(.(.(.(.(.",
"(.(.(.(.(.(.(.(.(.(.(.(.(.(.(.(.g d.Q.d.8.z.A :.<.1.l.( (.(.(.(.(.(.(.(.(.(.(.(.(.(.(.(.(.(.(.(.",
"(.(.(.(.(.(.(.(.(.(.(.(.(.(.(.(.g r | V *.2 . e 2 2 h (.(.(.(.(.(.(.(.(.(.(.(.(.(.(.(.(.(.(.(.(.",
"(.(.(.(.(.(.(.(.(.(.(.(.(.(.(.(.p (.(.$ t d (.w d $ (.(.(.(.(.(.(.(.(.(.(.(.(.(.(.(.(.(.(.(.(.(.",
"(.(.(.(.(.(.(.(.(.(.(.(.(.(.(.(.(.(.(.%.=.=.(.&.-.z (.(.(.(.(.(.(.(.(.(.(.(.(.(.(.(.(.(.(.(.(.(.",
"(.(.(.(.(.(.(.(.(.(.(.(.(.(.(.(.(.(.(.&.=.>.o &.=.>.(.(.(.(.(.(.(.(.(.(.(.(.(.(.(.(.(.(.(.(.(.(.",
"(.(.(.(.(.(.(.(.(.(.(.(.(.(.(.(.(.(.(.. = = (.= O (.(.(.(.(.(.(.(.(.(.(.(.(.(.(.(.(.(.(.(.(.(.(.",
"(.(.(.(.(.(.(.(.(.(.(.(.(.(.(.(.(.(.(.(.(.(.(.(.(.(.(.(.(.(.(.(.(.(.(.(.(.(.(.(.(.(.(.(.(.(.(.(.",
"(.(.(.(.(.(.(.(.(.(.(.(.(.(.(.(.(.(.(.(.(.(.(.(.(.(.(.(.(.(.(.(.(.(.(.(.(.(.(.(.(.(.(.(.(.(.(.(.",
"(.(.(.(.(.(.(.(.(.(.(.(.(.(.(.(.(.(.(.(.(.(.(.(.(.(.(.(.(.(.(.(.(.(.(.(.(.(.(.(.(.(.(.(.(.(.(.(.",
"(.(.(.(.(.(.(.(.(.(.(.(.(.(.(.(.(.(.(.(.(.(.(.(.(.(.(.(.(.(.(.(.(.(.(.(.(.(.(.(.(.(.(.(.(.(.(.(."
};
